<svg id="Layer_1" data-name="Layer 1" xmlns="http://www.w3.org/2000/svg" viewBox="0 0 23.01 23.01"><defs><style>.cls-1{fill:#ddb54b;}</style></defs><title>goRight_false_ver1</title><path class="cls-1" d="M1754.77,223a11.5,11.5,0,1,1,11.5,11.5A11.52,11.52,0,0,1,1754.77,223Zm1,0a10.5,10.5,0,1,0,10.5-10.5A10.52,10.52,0,0,0,1755.77,223Z" transform="translate(-1754.77 -211.54)"/><path class="cls-1" d="M1764.55,229.5a.5.5,0,0,0,.35-.15l5.63-5.63a.5.5,0,1,0-.71-.71l-5.63,5.63a.5.5,0,0,0,.35.85Z" transform="translate(-1754.77 -211.54)"/><path class="cls-1" d="M1770.07,223.81a.5.5,0,0,0,.35-.85l-5.63-5.63a.5.5,0,1,0-.71.71l5.63,5.63A.5.5,0,0,0,1770.07,223.81Z" transform="translate(-1754.77 -211.54)"/></svg>