<svg id="Layer_1" data-name="Layer 1" xmlns="http://www.w3.org/2000/svg" viewBox="0 0 44.06 88.39"><defs><style>.cls-1{fill:#222127;}</style></defs><title>fb_ver1</title><path class="cls-1" d="M739,311.6v17.56c-1.71,0-3.39,0-5.07,0a34.06,34.06,0,0,0-4.52.18,3.91,3.91,0,0,0-3.49,3.71c-.15,3,0,5.94,0,9.08H739V360h-4.51c-2.39,0-4.77.06-7.16,0-1.16,0-1.46.34-1.46,1.48,0,12.11,0,24.23,0,36.34v1.88c-.62.05-1.11.12-1.61.13-4.82,0-9.64,0-14.45,0-1.34,0-1.8-.3-1.79-1.75.06-12.16,0-24.32.06-36.48,0-1.24-.28-1.67-1.59-1.64-3.8.09-7.61,0-11.54,0V342.23h13c0-.63.08-1.11.08-1.6,0-4.08,0-8.17,0-12.25.07-8.15,6.59-15.88,14.71-16.69C728.1,311.17,733.5,311.6,739,311.6Z" transform="translate(-694.97 -311.43)"/></svg>