<svg id="Layer_1" data-name="Layer 1" xmlns="http://www.w3.org/2000/svg" viewBox="0 0 23.01 23.01"><defs><style>.cls-1{fill:#ddb54b;}</style></defs><title>goLeft_false_ver1</title><path class="cls-1" d="M1766.28,234.54a11.5,11.5,0,1,1,11.5-11.5A11.52,11.52,0,0,1,1766.28,234.54Zm0-22a10.5,10.5,0,1,0,10.5,10.5A10.52,10.52,0,0,0,1766.28,212.54Z" transform="translate(-1754.77 -211.54)"/><path class="cls-1" d="M1768,229.5a.5.5,0,0,1-.35-.15l-5.63-5.63a.5.5,0,1,1,.71-.71l5.63,5.63a.5.5,0,0,1-.35.85Z" transform="translate(-1754.77 -211.54)"/><path class="cls-1" d="M1762.49,223.81a.5.5,0,0,1-.35-.85l5.63-5.63a.5.5,0,0,1,.71.71l-5.63,5.63A.5.5,0,0,1,1762.49,223.81Z" transform="translate(-1754.77 -211.54)"/></svg>