<svg id="Layer_1" data-name="Layer 1" xmlns="http://www.w3.org/2000/svg" viewBox="0 0 304.02 247.85"><defs><style>.cls-1{fill:#222127;}</style></defs><title>twiter_ver1</title><path class="cls-1" d="M714.15,544.1c33.56,3.09,63.86-5.21,91.31-25.89-28.66-2.4-47.79-16.74-58.39-43.59,9.62,1.36,18.59,1.38,28-1.26-14.86-3.48-26.81-10.73-36-22.23s-13.72-24.57-13.7-39.81A65.31,65.31,0,0,0,753.44,419c-13.64-9.91-22.45-22.33-26-38.15s-1.19-30.76,6.81-45.16c33.88,39.82,76.65,61.69,128.84,65.34-.39-3.87-.85-7.4-1.09-10.94a57.93,57.93,0,0,1,10.48-38.32c14.56-20.61,34.69-29.83,59.86-27.11a58.87,58.87,0,0,1,35.4,17,4.89,4.89,0,0,0,5.21,1.54,127,127,0,0,0,33.28-12.63c.94-.52,1.91-1,3.35-1.72a57,57,0,0,1-10.2,19.36,70.87,70.87,0,0,1-15.71,14.53,115.32,115.32,0,0,0,33.68-8.92l.61.78c-5.08,5.91-9.9,12.05-15.31,17.64-4.33,4.47-9.4,8.22-14,12.41a4.61,4.61,0,0,0-1.45,3.09,180.67,180.67,0,0,1-21.35,90.47c-19.16,36.23-47.06,63.3-84.93,79.63-25.23,10.88-51.68,15.11-79.07,14.06a174.43,174.43,0,0,1-66.2-15.7c-7.4-3.37-14.47-7.48-21.7-11.25Z" transform="translate(-713.96 -324.15)"/></svg>