<svg id="Слой_1" data-name="Слой 1" xmlns="http://www.w3.org/2000/svg" viewBox="0 0 300 300"><defs><style>.cls-1{fill:#fff;}.cls-2{fill:#353535;}</style></defs><title>youtube_ver1</title><g id="g5360"><rect id="rect4" class="cls-1" width="300" height="300" rx="49.14" ry="49.14"/><g id="g4167"><path id="path4156" class="cls-2" d="M149.94,79.22s-63.22,0-79.09,4.12a26.14,26.14,0,0,0-17.87,18c-4.12,15.87-4.12,48.73-4.12,48.73s0,33,4.12,48.6a25.74,25.74,0,0,0,17.87,17.87c16,4.25,79.09,4.25,79.09,4.25s63.34,0,79.21-4.12a25.14,25.14,0,0,0,17.74-17.87c4.25-15.74,4.25-48.6,4.25-48.6s.12-33-4.25-48.85A25,25,0,0,0,229.15,83.6C213.28,79.22,149.94,79.22,149.94,79.22ZM129.82,119.7l52.6,30.36-52.6,30.23V119.7Z"/></g></g></svg>